<?xml version="1.0" encoding="UTF-8"?><svg xmlns="http://www.w3.org/2000/svg" viewBox="0 0 1980 380"><defs><style>.cls-1{fill:#3b5ba7;}.cls-2{fill:#ffcb05;}.cls-3{fill:#fff;}.cls-4{fill:#ff1d25;}.cls-5{fill:#1a1a1a;}.cls-6{fill:#ff7500;}</style></defs><g id="Layer_1"><path class="cls-4" d="M241.13,162.54c-2.25,0-4.33-1.22-5.42-3.17-10.29-18.46-29.72-29.93-50.71-29.93s-40.42,11.47-50.71,29.93c-1.09,1.96-3.17,3.17-5.42,3.17H11.18c5.83-40.95,25.72-78.6,56.39-106.5C99.84,26.67,141.54,10.5,185,10.5s85.16,16.17,117.43,45.54c30.66,27.9,50.55,65.54,56.39,106.5h-117.69Z"/><path class="cls-5" d="M185,21c40.84,0,80.03,15.2,110.37,42.8,25.84,23.51,43.55,54.38,50.91,88.24h-102.68c-12.43-20.48-34.65-33.1-58.59-33.1s-46.16,12.62-58.59,33.1H23.73c7.36-33.87,25.07-64.73,50.9-88.24,30.33-27.6,69.53-42.8,110.37-42.8M185,0C89.26,0,10.4,73.05.03,167.01c-.35,3.22,2.17,6.03,5.38,6.03h123.45c6.09,0,11.66-3.3,14.59-8.56,8.17-14.65,23.71-24.54,41.54-24.54s33.37,9.89,41.54,24.54c2.93,5.26,8.51,8.56,14.59,8.56h123.45c3.21,0,5.73-2.81,5.38-6.03C359.6,73.05,280.74,0,185,0h0Z"/><path class="cls-3" d="M185.01,369.5c-43.46,0-85.16-16.17-117.43-45.54-30.66-27.9-50.55-65.54-56.39-106.5h117.69c2.25,0,4.33,1.21,5.42,3.17,10.29,18.46,29.72,29.93,50.71,29.93s40.42-11.47,50.71-29.93c1.09-1.96,3.17-3.17,5.42-3.17h117.68c-5.84,40.98-25.73,78.63-56.41,106.53-32.27,29.35-73.96,45.51-117.41,45.51Z"/><path class="cls-5" d="M346.27,227.96c-7.36,33.88-25.08,64.75-50.93,88.26-30.33,27.59-69.52,42.78-110.34,42.78s-80.03-15.2-110.37-42.8c-25.84-23.51-43.55-54.38-50.91-88.24h102.68c12.43,20.48,34.65,33.1,58.59,33.1s46.16-12.62,58.59-33.1h102.68M364.59,206.96h-123.45c-6.09,0-11.66,3.3-14.59,8.56-8.17,14.65-23.71,24.54-41.54,24.54s-33.37-9.89-41.54-24.54c-2.93-5.26-8.51-8.56-14.59-8.56H5.42c-3.21,0-5.73,2.81-5.38,6.03,10.36,93.96,89.23,167.01,184.97,167.01s174.56-73.01,184.95-166.93c.36-3.25-2.12-6.11-5.37-6.11h0Z"/></g><g id="Layer_3"><path class="cls-2" d="M401.38,305.89c-3.58,0-6.5-2.92-6.5-6.5V122.48c0-3.58,2.92-6.5,6.5-6.5h44.91c9.39,0,17.59,1.78,24.35,5.3,6.94,3.61,12.31,8.96,15.96,15.89,3.56,6.77,5.37,14.96,5.37,24.37v29.49c0,9.17-1.81,17.2-5.39,23.84-3.66,6.8-9.03,12.06-15.97,15.62-6.75,3.47-14.94,5.23-24.33,5.23h-15.91v63.67c0,3.58-2.92,6.5-6.5,6.5h-22.5ZM446.28,201.46c3.14,0,5.37-.94,7.04-2.97,1.84-2.23,2.77-5.49,2.77-9.7v-25.26c0-4.55-.94-8.01-2.79-10.29-1.67-2.05-3.9-3-7.02-3h-15.91v51.22h15.91Z"/><path class="cls-1" d="M446.28,120.48c8.71,0,16.13,1.6,22.27,4.79,6.14,3.19,10.82,7.86,14.06,14,3.23,6.14,4.85,13.56,4.85,22.27v29.49c0,8.46-1.62,15.7-4.85,21.71-3.24,6.02-7.92,10.6-14.06,13.75-6.14,3.15-13.56,4.73-22.27,4.73h-18.4c-1.1,0-2,.9-2,2v66.17c0,1.1-.9,2-2,2h-22.5c-1.1,0-2-.9-2-2V122.48c0-1.1.9-2,2-2h44.91M427.88,205.96h18.4c4.48,0,7.98-1.53,10.51-4.6,2.53-3.07,3.79-7.26,3.79-12.57v-25.26c0-5.64-1.27-10.02-3.79-13.13-2.53-3.11-6.03-4.67-10.51-4.67h-18.4c-1.1,0-2,.9-2,2v56.22c0,1.1.9,2,2,2M446.28,111.48h-44.91c-6.07,0-11,4.93-11,11v176.91c0,6.07,4.93,11,11,11h22.5c6.07,0,11-4.93,11-11v-59.17h11.41c10.11,0,18.99-1.93,26.38-5.72,7.76-3.99,13.78-9.87,17.88-17.49,3.93-7.31,5.93-16.05,5.93-25.97v-29.49c0-10.14-1.98-19.05-5.89-26.47-4.09-7.76-10.1-13.74-17.87-17.79-7.41-3.85-16.3-5.81-26.43-5.81h0ZM434.88,154.74h11.41c2.25,0,3,.7,3.53,1.35,1.16,1.43,1.78,4,1.78,7.45v25.26c0,3.14-.58,5.44-1.74,6.84-.53.64-1.29,1.33-3.57,1.33h-11.41v-42.22h0Z"/><path class="cls-2" d="M535.99,307.76c-13.09,0-23.52-3.65-30.99-10.84-7.52-7.24-11.33-17.41-11.33-30.24v-60.72c0-12.77,3.83-22.83,11.38-29.91,7.47-7,17.88-10.55,30.95-10.55s23.57,3.56,30.92,10.58c7.4,7.07,11.16,17.13,11.16,29.88v61.09c0,12.74-3.75,22.83-11.14,29.98-7.35,7.12-17.76,10.72-30.94,10.72ZM535.87,199.39c-2.9,0-4.21,1.08-4.94,1.88-1.27,1.39-1.88,3.42-1.88,6.18v57.98c0,2.98.63,5.18,1.88,6.56.73.81,2.04,1.88,4.94,1.88s4.27-1.06,4.97-1.85c1.23-1.38,1.85-3.6,1.85-6.59v-57.98c0-2.78-.6-4.82-1.85-6.22-.71-.79-1.99-1.85-4.97-1.85Z"/><path class="cls-1" d="M535.99,170c12.03,0,21.3,3.11,27.81,9.33s9.77,15.1,9.77,26.63v61.09c0,11.53-3.25,20.45-9.77,26.75-6.51,6.3-15.78,9.46-27.81,9.46s-21.23-3.19-27.87-9.58c-6.64-6.39-9.95-15.39-9.95-27v-60.72c0-11.53,3.32-20.41,9.95-26.63,6.64-6.22,15.93-9.33,27.87-9.33M535.87,278.37c3.57,0,6.35-1.12,8.34-3.36,1.99-2.24,2.99-5.43,2.99-9.58v-57.98c0-3.9-1-6.97-2.99-9.21-1.99-2.24-4.77-3.36-8.34-3.36s-6.24,1.12-8.27,3.36c-2.03,2.24-3.05,5.31-3.05,9.21v57.98c0,4.15,1.01,7.34,3.05,9.58,2.03,2.24,4.79,3.36,8.27,3.36M535.99,161c-14.25,0-25.7,3.96-34.03,11.77-8.49,7.96-12.8,19.13-12.8,33.19v60.72c0,14.1,4.28,25.37,12.71,33.49,8.34,8.03,19.81,12.1,34.11,12.1s25.85-4.03,34.07-11.99c8.3-8.03,12.51-19.21,12.51-33.22v-61.09c0-14.03-4.22-25.18-12.55-33.13-8.21-7.85-19.66-11.82-34.03-11.82h0ZM535.87,269.37c-1.24,0-1.5-.29-1.61-.41-.33-.36-.71-1.51-.71-3.53v-57.98c0-1.51.26-2.66.71-3.16.11-.12.37-.41,1.61-.41.39,0,1.34.03,1.61.34.45.51.71,1.69.71,3.23v57.98c0,2.07-.38,3.23-.71,3.6-.27.31-1.22.34-1.61.34h0Z"/><path class="cls-2" d="M663.6,305.89c-2.6,0-4.95-1.55-5.97-3.94l-19.96-46.53-9.46,14.75v29.22c0,3.58-2.92,6.5-6.5,6.5h-22.38c-3.58,0-6.5-2.92-6.5-6.5V122.48c0-3.58,2.92-6.5,6.5-6.5h22.38c3.58,0,6.5,2.92,6.5,6.5v92.01l25.76-43.55c1.17-1.97,3.31-3.19,5.6-3.19h22.45c2.38,0,4.56,1.3,5.7,3.38s1.05,4.63-.23,6.63l-29.19,45.51,35.16,73.32c.97,2.03.84,4.37-.36,6.27s-3.25,3.04-5.5,3.04h-24Z"/><path class="cls-1" d="M621.71,120.48c1.1,0,2,.9,2,2v101.14c0,1.25,1.01,2,2.02,2,.65,0,1.3-.31,1.7-.99l30.41-51.42c.36-.61,1.01-.98,1.72-.98h22.45c1.58,0,2.54,1.75,1.68,3.08l-29.94,46.69c-.37.58-.42,1.32-.12,1.95l35.77,74.57c.64,1.33-.33,2.87-1.8,2.87h-24c-.8,0-1.52-.48-1.84-1.21l-21.81-50.86c-.34-.8-1.09-1.21-1.84-1.21-.64,0-1.28.3-1.68.92l-12.4,19.33c-.21.32-.32.7-.32,1.08v29.95c0,1.1-.9,2-2,2h-22.38c-1.1,0-2-.9-2-2V122.48c0-1.1.9-2,2-2h22.38M621.71,111.48h-22.38c-6.07,0-11,4.93-11,11v176.91c0,6.07,4.93,11,11,11h22.38c6.07,0,11-4.93,11-11v-27.9l4.17-6.5,16.61,38.74c1.74,4.05,5.7,6.66,10.11,6.66h24c3.8,0,7.28-1.92,9.31-5.14,2.03-3.22,2.25-7.19.61-10.62l-34.08-71.05,27.83-43.4c2.17-3.39,2.32-7.68.39-11.22-1.93-3.53-5.63-5.72-9.65-5.72h-22.45c-3.87,0-7.5,2.07-9.47,5.4l-17.39,29.4v-75.56c0-6.07-4.93-11-11-11h0Z"/><path class="cls-2" d="M737.06,307.76c-13.9,0-24.91-4.1-32.73-12.2-7.77-8.05-11.71-19.44-11.71-33.86v-47.65c0-15.17,3.84-27.15,11.42-35.6,7.7-8.59,18.48-12.94,32.03-12.94s24.62,4.11,32.32,12.23c7.63,8.05,11.5,19.43,11.5,33.83v33.09c0,3.58-2.92,6.5-6.5,6.5h-46.25v11.3c0,4.07.9,7.15,2.67,9.15,1.65,1.87,4.03,2.77,7.27,2.77,3,0,5.19-.68,6.7-2.09,1.39-1.29,2.04-3.22,1.99-5.88v-.45c0-3.58,2.92-6.5,6.5-6.5l21.54.11c3.57.02,6.47,2.93,6.47,6.5,0,12.99-3.88,23.31-11.52,30.68-7.6,7.32-18.25,11.03-31.68,11.03ZM745.37,221.49v-10.18c0-4.49-.89-7.88-2.63-10.08-1.54-1.94-3.66-2.84-6.68-2.84s-4.82.92-6.3,2.98c-1.75,2.44-2.64,6.2-2.64,11.19v8.94h18.25Z"/><path class="cls-1" d="M736.06,170c12.52,0,22.21,3.61,29.05,10.82,6.84,7.22,10.26,17.46,10.26,30.73v33.09c0,1.1-.9,2-2,2h-48.75c-1.1,0-2,.9-2,2v13.8c0,5.23,1.26,9.27,3.79,12.13,2.53,2.86,6.08,4.29,10.64,4.29,4.15,0,7.4-1.1,9.77-3.3,2.36-2.2,3.5-5.29,3.42-9.27v-.35c0-1.11.9-2,2-2,0,0,0,0,0,0l21.51.1c1.1,0,1.99.9,1.99,2,0,11.78-3.38,20.92-10.14,27.44-6.76,6.51-16.28,9.77-28.56,9.77s-22.52-3.61-29.49-10.82c-6.97-7.22-10.45-17.46-10.45-30.73v-47.65c0-14.1,3.42-24.97,10.26-32.6,6.84-7.63,16.4-11.45,28.68-11.45M724.62,225.99h23.25c1.1,0,2-.9,2-2v-12.68c0-5.56-1.2-9.85-3.61-12.88-2.41-3.03-5.81-4.54-10.2-4.54s-7.63,1.62-9.95,4.85c-2.32,3.24-3.48,7.84-3.48,13.81v11.44c0,1.1.9,2,2,2M736.06,161c-14.88,0-26.79,4.86-35.38,14.44-8.34,9.3-12.56,22.29-12.56,38.61v47.65c0,15.62,4.37,28.07,12.98,36.98,8.7,9.01,20.8,13.57,35.96,13.57s26.34-4.13,34.8-12.29c8.56-8.24,12.9-19.65,12.9-33.92,0-5.25-3.72-9.67-8.66-10.75,4.76-1.21,8.29-5.53,8.29-10.66v-33.09c0-15.59-4.28-28.01-12.73-36.93-8.58-9.05-20.55-13.63-35.58-13.63h0ZM731.62,216.99v-4.44c0-5.28,1.12-7.63,1.79-8.56.39-.54.79-1.1,2.64-1.1,2.25,0,2.82.71,3.16,1.14,1.06,1.34,1.65,3.93,1.65,7.28v5.68h-9.25ZM731.62,255.65h16.77c-4.17,1.56-7.15,5.59-7.15,10.31v.54c.02.89-.06,2.04-.55,2.49-.79.74-2.42.89-3.64.89-2.79,0-3.56-.88-3.89-1.25-1.27-1.44-1.54-4.15-1.54-6.17v-6.8h0Z"/><path class="cls-2" d="M738.18,154.95c-1.4,0-2.74-.44-3.87-1.28l-14.18-10.51c-2.84-2.1-3.48-6.02-1.47-8.93l28.3-40.85c1.21-1.75,3.21-2.8,5.34-2.8,1.43,0,2.84.48,3.97,1.35l16.39,12.66c1.38,1.07,2.26,2.61,2.48,4.35.21,1.74-.26,3.45-1.35,4.82l-30.52,38.69c-1.24,1.57-3.1,2.48-5.11,2.48h0Z"/><path class="cls-1" d="M752.31,95.1c.43,0,.86.14,1.22.42l16.39,12.66c.88.68,1.04,1.95.35,2.82l-30.52,38.69c-.39.5-.98.76-1.57.76-.41,0-.83-.13-1.19-.39l-14.18-10.51c-.87-.64-1.07-1.86-.45-2.75l28.3-40.85c.39-.56,1.01-.86,1.65-.86M752.31,86.1c-3.61,0-6.99,1.77-9.04,4.74l-28.3,40.85c-3.4,4.91-2.31,11.55,2.49,15.1l14.18,10.51c1.91,1.41,4.17,2.16,6.55,2.16,3.39,0,6.54-1.53,8.64-4.19l30.52-38.69c1.83-2.32,2.64-5.22,2.28-8.16-.36-2.94-1.85-5.55-4.19-7.36l-16.39-12.66c-1.92-1.48-4.3-2.29-6.72-2.29h0Z"/><path class="cls-6" d="M815.61,313.54V92.66h184.71v40.84h-99.05c-15.41,0-27.89,10.5-27.89,23.45v27.59h110.02v37.74h-82.12c-15.41,0-27.89,10.5-27.89,23.45v67.81h-57.77Z"/><path class="cls-6" d="M1002.01,204.03c0-33.82,11.59-61.72,34.77-83.68,23.18-21.96,54.64-32.95,94.38-32.95s71.2,10.98,94.38,32.95c23.18,21.96,34.77,49.86,34.77,83.68s-11.65,60.38-34.96,82.14c-23.31,21.76-54.7,32.64-94.2,32.64s-70.9-10.88-94.2-32.64c-23.31-21.76-34.96-49.14-34.96-82.14ZM1059.78,204.03c0,20.63,5.89,38.1,17.66,52.44,11.77,14.34,29.68,21.5,53.72,21.5s41.95-7.16,53.72-21.5c11.77-14.33,17.66-31.81,17.66-52.44,0-13.61-2.27-25.93-6.81-36.97-4.54-11.03-12.33-20.26-23.37-27.69-11.04-7.42-24.78-11.14-41.21-11.14s-30.17,3.71-41.21,11.14c-11.04,7.42-18.83,16.66-23.37,27.69-4.54,11.04-6.81,23.36-6.81,36.97Z"/><path class="cls-6" d="M1278.31,313.09V92.21h141.66c23.05,0,41.64,5.88,55.75,17.63,14.1,11.76,21.16,26.19,21.16,43.31,0,27.43-13.86,45.89-41.58,55.38v.62c23.05,4.95,35.81,22.17,38.27,51.66,0,1.24.18,4.33.55,9.28.37,4.95.67,8.92.92,11.91.24,2.99.74,6.65,1.47,10.98s1.78,8.2,3.13,11.6c1.35,3.4,3,6.24,4.97,8.51h-57.77c-1.97-4.12-3.5-9.13-4.6-15-1.1-5.88-1.97-12.73-2.58-20.57-.62-7.84-1.29-13.61-2.02-17.32-1.97-11.96-6.2-20.52-12.69-25.68-6.5-5.15-16.87-7.73-31.09-7.73h-29.87c-15.41,0-27.89,10.5-27.89,23.45v62.86h-57.77ZM1336.08,153.4v38.73h63.29c26.49,0,39.74-10.52,39.74-31.55s-13.25-30.63-39.74-30.63h-35.39c-15.41,0-27.89,10.5-27.89,23.45Z"/><path class="cls-6" d="M1717.35,313.99l-5.89-25.06c-18.65,20.21-42.68,30.32-72.12,30.32-39.5,0-70.9-10.88-94.2-32.64-23.31-21.76-34.96-49.14-34.96-82.14s11.59-61.72,34.77-83.68c23.18-21.96,54.64-32.95,94.38-32.95,28.21,0,52.99,6.96,74.33,20.88,21.34,13.92,33.48,32.95,36.43,57.08h-55.19c-3.19-11.96-9.75-21.14-19.69-27.53-9.93-6.39-21.89-9.59-35.88-9.59-16.44,0-30.17,3.71-41.21,11.14-11.04,7.42-18.83,16.66-23.37,27.69-4.54,11.04-6.81,23.36-6.81,36.97,0,20.63,5.89,38.1,17.66,52.44,11.77,14.34,29.68,21.5,53.72,21.5,18.64,0,33.3-4.07,43.97-12.22,10.67-8.14,16.86-19.95,18.58-35.42h-58.14v-36.2h110.39v119.41h-36.8Z"/><path class="cls-6" d="M1780.57,313.54V92.66h196.49v40.84h-110.83c-15.41,0-27.89,10.5-27.89,23.45v23.88h127.31v37.74h-99.42c-15.41,0-27.89,10.5-27.89,23.45v30.69h141.66v40.84h-199.43Z"/></g></svg>